# xmcd
#
# Track frame offsets:
#   150
#   19625
#   33697
#   45020
#   65820
#   75340
#   86420
#   95502
#   109680
#   120285
#   132210
#   144820
#   157145
#   167765
#   178977
#   190517
#   201642
#   212125
#   222477
#   232010
#   241350
#
# Disc length: 3341 seconds
#
# Revision: 0
# Processed by: cddbd v1.5.1PL2 Copyright (c) Steve Scherf et al.
# Submitted via: uFREEDB 1.6.2
#
DISCID=230d0b15
DTITLE=OLD SONGS COLLECT 6 - OLD SONGS COLLECT 6
DYEAR=1970
DGENRE=UnClassifiable
TTITLE0=Summer wine
TTITLE1=Green green grass of home
TTITLE2=More than Ican say
TTITLE3=My way
TTITLE4=Yesterday
TTITLE5=Born free
TTITLE6=Crying in the rain
TTITLE7=Am I that easy to forget
TTITLE8=To know is to love you 
TTITLE9=The impossible dream
TTITLE10=Today
TTITLE11=Your cheatin heart
TTITLE12=Dance on little girl
TTITLE13=Run away
TTITLE14=Sherry
TTITLE15=Big girls don't cry
TTITLE16=Lipstick on your collar
TTITLE17=Stupid cupid
TTITLE18=Love potion No.9
TTITLE19=Wooden heart
TTITLE20=I'm gonna knock on your door
EXTD=
EXTT0=
EXTT1=
EXTT2=
EXTT3=
EXTT4=
EXTT5=
EXTT6=
EXTT7=
EXTT8=
EXTT9=
EXTT10=
EXTT11=
EXTT12=
EXTT13=
EXTT14=
EXTT15=
EXTT16=
EXTT17=
EXTT18=
EXTT19=
EXTT20=
PLAYORDER=
